<?xml version="1.0" encoding="utf-8"?>
<!-- Generator: Adobe Illustrator 17.1.0, SVG Export Plug-In . SVG Version: 6.00 Build 0)  -->
<!DOCTYPE svg PUBLIC "-//W3C//DTD SVG 1.1//EN" "http://www.w3.org/Graphics/SVG/1.1/DTD/svg11.dtd">
<svg version="1.1" id="Capa_1" xmlns="http://www.w3.org/2000/svg" xmlns:xlink="http://www.w3.org/1999/xlink" x="0px" y="0px"
	 viewBox="0 90 612 612" enable-background="new 0 90 612 612" xml:space="preserve">
<g id="Capa_4" display="none">
	<rect x="-193.5" y="46" display="inline" fill="#7C1818" width="967" height="959"/>
</g>
<g id="icono-pinterest-bn.svg_x0A_">
	<path d="M306,90c168.3,0,306,137.7,306,306S474.3,702,306,702S0,564.3,0,396S137.7,90,306,90z M315.6,223.9
		c-109,0-162.6,74.6-162.6,137.7c0,38.3,15.3,70.8,45.9,84.2c5.7,1.9,9.6,0,11.5-5.7l3.8-17.2c1.9-5.7,0-7.6-3.8-11.5
		c-9.6-9.6-15.3-24.9-15.3-44c0-55.5,42.1-105.2,110.9-105.2c61.2,0,93.7,36.3,93.7,84.1C399.7,409.4,371,463,327,463
		c-22.9,0-42.1-19.1-36.3-42.1c7.6-28.7,19.1-57.4,19.1-78.4c0-17.2-9.6-32.5-30.6-32.5c-24.9,0-44,24.9-44,57.4
		c0,21,7.6,34.4,7.6,34.4l-28.7,120.5c-9.6,36.3-1.9,78.4,0,84.2c0,1.9,3.8,3.8,5.7,1.9c1.9-1.9,30.6-38.2,40.2-72.7
		c1.9-9.6,15.3-61.2,15.3-61.2c7.6,15.3,30.6,26.8,55.5,26.8c72.7,0,122.4-65,122.4-151.1C459,285.1,401.6,223.9,315.6,223.9z"/>
</g>
<g id="icono-pinterest.svg" display="none">
	<path display="inline" fill="#FFFFFF" d="M306,180c168.3,0,306,137.7,306,306S474.3,792,306,792S0,654.3,0,486S137.7,180,306,180z
		 M315.6,313.9c-109,0-162.6,74.6-162.6,137.7c0,38.3,15.3,70.8,45.9,84.2c5.7,1.9,9.6,0,11.5-5.7l3.8-17.2c1.9-5.7,0-7.6-3.8-11.5
		c-9.6-9.6-15.3-24.9-15.3-44c0-55.5,42.1-105.2,110.9-105.2c61.2,0,93.7,36.3,93.7,84.1C399.7,499.4,371,553,327,553
		c-22.9,0-42.1-19.1-36.3-42.1c7.6-28.7,19.1-57.4,19.1-78.4c0-17.2-9.6-32.5-30.6-32.5c-24.9,0-44,24.9-44,57.4
		c0,21,7.6,34.4,7.6,34.4l-28.7,120.5c-9.6,36.3-1.9,78.4,0,84.2c0,1.9,3.8,3.8,5.7,1.9c1.9-1.9,30.6-38.2,40.2-72.7
		c1.9-9.6,15.3-61.2,15.3-61.2c7.6,15.3,30.6,26.8,55.5,26.8c72.7,0,122.4-65,122.4-151.1C459,375.1,401.6,313.9,315.6,313.9z
		 M306,180c168.3,0,306,137.7,306,306S474.3,792,306,792S0,654.3,0,486S137.7,180,306,180z M315.6,313.9
		c-109,0-162.6,74.6-162.6,137.7c0,38.3,15.3,70.8,45.9,84.2c5.7,1.9,9.6,0,11.5-5.7l3.8-17.2c1.9-5.7,0-7.6-3.8-11.5
		c-9.6-9.6-15.3-24.9-15.3-44c0-55.5,42.1-105.2,110.9-105.2c61.2,0,93.7,36.3,93.7,84.1C399.7,499.4,371,553,327,553
		c-22.9,0-42.1-19.1-36.3-42.1c7.6-28.7,19.1-57.4,19.1-78.4c0-17.2-9.6-32.5-30.6-32.5c-24.9,0-44,24.9-44,57.4
		c0,21,7.6,34.4,7.6,34.4l-28.7,120.5c-9.6,36.3-1.9,78.4,0,84.2c0,1.9,3.8,3.8,5.7,1.9c1.9-1.9,30.6-38.2,40.2-72.7
		c1.9-9.6,15.3-61.2,15.3-61.2c7.6,15.3,30.6,26.8,55.5,26.8c72.7,0,122.4-65,122.4-151.1C459,375.1,401.6,313.9,315.6,313.9z"/>
</g>
</svg>
